<?xml version="1.0" encoding="utf-8"?>
<!-- Generator: Adobe Illustrator 25.4.1, SVG Export Plug-In . SVG Version: 6.00 Build 0)  -->
<svg version="1.1" id="Layer_1" xmlns="http://www.w3.org/2000/svg" xmlns:xlink="http://www.w3.org/1999/xlink" x="0px" y="0px"
	 viewBox="0 0 64 64" style="enable-background:new 0 0 64 64;" xml:space="preserve">
<path d="M41.39,34.46l5.95-3.43c0.08-0.04,0.16-0.06,0.25-0.06c0.09,0.01,0.17,0.04,0.24,0.09c0.07,0.05,0.12,0.13,0.15,0.21
	c0.03,0.08,0.03,0.17,0,0.25l-3.31,10.39c-0.03,0.09-0.08,0.16-0.15,0.21c-0.07,0.05-0.16,0.08-0.25,0.09
	c-0.09,0-0.18-0.02-0.25-0.07c-0.08-0.05-0.13-0.12-0.17-0.21l-2.64-6.95c-0.04-0.09-0.04-0.2,0-0.29
	C41.24,34.59,41.3,34.51,41.39,34.46L41.39,34.46z M31.59,19.09l-6.02,14.79c-0.04,0.09-0.04,0.2-0.01,0.29
	c0.03,0.09,0.1,0.18,0.18,0.23l16.33,10.06c0.08,0.05,0.17,0.07,0.26,0.07c0.09-0.01,0.18-0.04,0.25-0.1
	c0.07-0.06,0.12-0.14,0.14-0.22c0.02-0.09,0.02-0.18-0.02-0.26L32.4,19.09c-0.03-0.08-0.09-0.15-0.16-0.19
	c-0.07-0.05-0.16-0.07-0.24-0.07c-0.09,0-0.17,0.03-0.24,0.07S31.62,19.01,31.59,19.09L31.59,19.09z M16.02,31.57l4.25,13.31
	c0.03,0.09,0.08,0.16,0.16,0.22c0.07,0.05,0.16,0.08,0.26,0.08h17.51c0.09,0,0.19-0.03,0.26-0.08s0.13-0.13,0.16-0.22
	c0.03-0.09,0.02-0.18-0.01-0.27c-0.03-0.09-0.1-0.16-0.18-0.21L16.66,31.08c-0.07-0.05-0.16-0.07-0.25-0.06
	c-0.09,0-0.17,0.04-0.24,0.09s-0.12,0.13-0.15,0.21C15.99,31.39,15.99,31.48,16.02,31.57L16.02,31.57z"/>
</svg>
