<?xml version="1.0" encoding="utf-8"?>
<!-- Generator: Adobe Illustrator 25.4.1, SVG Export Plug-In . SVG Version: 6.00 Build 0)  -->
<svg version="1.1" id="Layer_1" xmlns="http://www.w3.org/2000/svg" xmlns:xlink="http://www.w3.org/1999/xlink" x="0px" y="0px"
	 viewBox="0 0 64 64" style="enable-background:new 0 0 64 64;" xml:space="preserve">
<style type="text/css">
	.st0{fill:#333333;}
</style>
<path class="st0" d="M42.86,38.52L36.35,32l6.49-6.49c1.2-1.2,1.2-3.14,0-4.34l0,0c-1.2-1.2-3.14-1.2-4.34,0L32,27.65l-6.52-6.52
	c-1.2-1.2-3.14-1.2-4.34,0l0,0c-1.2,1.2-1.2,3.14,0,4.34L27.66,32l-6.52,6.52c-1.2,1.2-1.2,3.14,0,4.34l0,0c1.2,1.2,3.14,1.2,4.34,0
	L32,36.34l6.52,6.52c1.2,1.2,3.14,1.2,4.34,0l0,0C44.06,41.66,44.06,39.72,42.86,38.52z"/>
</svg>
