<?xml version="1.0" encoding="utf-8"?>
<!-- Generator: Adobe Illustrator 25.4.1, SVG Export Plug-In . SVG Version: 6.00 Build 0)  -->
<svg version="1.1" id="Layer_1" xmlns="http://www.w3.org/2000/svg" xmlns:xlink="http://www.w3.org/1999/xlink" x="0px" y="0px"
	 viewBox="0 0 64 64" style="enable-background:new 0 0 64 64;" xml:space="preserve">
<style type="text/css">
	.st0{fill:#3C3C3C;}
</style>
<g>
	
		<ellipse transform="matrix(0.9871 -0.1602 0.1602 0.9871 -2.8663 7.1099)" class="st0" cx="42.67" cy="21.33" rx="5.33" ry="5.33"/>
	<circle class="st0" cx="21.33" cy="42.67" r="5.33"/>
	<path class="st0" d="M48,42.67c0-0.18-0.01-0.35-0.03-0.52c0-0.03-0.01-0.07-0.01-0.1c-0.57-4.99-7.74-9.57-13.29-10.03
		c0,0,5.84,2.25,3.12,8.51c-0.02,0.05-0.04,0.09-0.06,0.14c-0.01,0.03-0.02,0.05-0.04,0.08l0,0c-0.23,0.6-0.36,1.25-0.36,1.92
		c0,0.55,0.08,1.08,0.24,1.59c0.31,1,0.91,1.88,1.7,2.53c0.26,0.22,0.55,0.41,0.85,0.57c0.3,0.16,0.62,0.3,0.96,0.4
		c0.5,0.16,1.03,0.24,1.59,0.24c2.21,0,4.1-1.34,4.91-3.26C47.85,44.1,48,43.4,48,42.67L48,42.67L48,42.67
		C48,42.67,48,42.67,48,42.67z"/>
	<path class="st0" d="M26.21,23.48c0.02-0.05,0.04-0.09,0.06-0.14c0.01-0.03,0.02-0.05,0.04-0.08l0,0c0.23-0.6,0.36-1.25,0.36-1.92
		c0-2.95-2.39-5.33-5.33-5.33S16,18.39,16,21.33c0,0.18,0.01,0.35,0.03,0.52c0,0.03,0.01,0.07,0.01,0.1
		c0.57,4.99,7.74,9.57,13.29,10.03C29.33,31.99,23.49,29.75,26.21,23.48z"/>
</g>
</svg>
