<?xml version="1.0" encoding="utf-8"?>
<!-- Generator: Adobe Illustrator 25.4.1, SVG Export Plug-In . SVG Version: 6.00 Build 0)  -->
<svg version="1.1" id="Layer_1" xmlns="http://www.w3.org/2000/svg" xmlns:xlink="http://www.w3.org/1999/xlink" x="0px" y="0px"
	 viewBox="0 0 64 64" style="enable-background:new 0 0 64 64;" xml:space="preserve">
<path d="M19.71,28.93L19.71,28.93c1.7,0,3.07,1.37,3.07,3.07v0c0,1.7-1.37,3.07-3.07,3.07h0c-1.7,0-3.07-1.37-3.07-3.07v0
	C16.64,30.3,18.01,28.93,19.71,28.93z M32,28.93L32,28.93c1.7,0,3.07,1.37,3.07,3.07v0c0,1.7-1.37,3.07-3.07,3.07h0
	c-1.7,0-3.07-1.37-3.07-3.07v0C28.93,30.3,30.3,28.93,32,28.93z M44.29,28.93L44.29,28.93c1.7,0,3.07,1.37,3.07,3.07v0
	c0,1.7-1.37,3.07-3.07,3.07h0c-1.7,0-3.07-1.37-3.07-3.07v0C41.22,30.3,42.59,28.93,44.29,28.93z"/>
</svg>
