<?xml version="1.0" encoding="utf-8"?>
<!-- Generator: Adobe Illustrator 25.4.1, SVG Export Plug-In . SVG Version: 6.00 Build 0)  -->
<svg version="1.1" id="Layer_1" xmlns="http://www.w3.org/2000/svg" xmlns:xlink="http://www.w3.org/1999/xlink" x="0px" y="0px"
	 viewBox="0 0 64 64" style="enable-background:new 0 0 64 64;" xml:space="preserve">
<path d="M40.15,37.91c-0.78,0.74-1.65,1.38-2.57,1.93c-1.08,0.64-2.26,1.1-3.5,1.35c-1.67,0.34-3.4,0.27-5.05-0.2
	c-0.91-0.26-1.79-0.63-2.62-1.1c-0.54-0.31-1.06-0.66-1.55-1.05c-0.65-0.51-1.27-1.06-1.84-1.66c-0.17-0.18-0.29-0.41-0.34-0.66
	c-0.04-0.25-0.01-0.5,0.09-0.73c0.1-0.23,0.27-0.43,0.48-0.56c0.21-0.14,0.46-0.21,0.71-0.21h0.04c0.34,0.01,0.67,0.16,0.9,0.4
	c0.55,0.55,1.15,1.06,1.78,1.52c0.6,0.45,1.25,0.84,1.94,1.15c0.45,0.2,0.91,0.37,1.38,0.49c1.14,0.29,2.33,0.33,3.48,0.11
	c0.48-0.09,0.94-0.22,1.4-0.4c0.92-0.36,1.78-0.85,2.56-1.46c0.54-0.43,1.05-0.9,1.52-1.41c0.66-0.69,1.27-1.43,1.82-2.21
	c0.73-1.03,1.39-2.1,1.98-3.21c0.26-0.5,0.51-1,0.75-1.52c0.05-0.1,0.06-0.22,0.04-0.33c-0.02-0.11-0.07-0.21-0.15-0.29
	c-0.08-0.08-0.19-0.13-0.3-0.15c-0.11-0.02-0.23,0-0.33,0.04c-0.2,0.09-0.4,0.18-0.6,0.27c-1.23,0.54-2.5,0.99-3.79,1.33
	c-3.69,0.97-7.56,1.08-11.31,0.34c-1.4-0.28-2.78-0.67-4.11-1.18c-1.89-0.7-3.69-1.63-5.36-2.76c-0.4-0.27-0.79-0.56-1.16-0.87
	c-0.13-0.11-0.24-0.24-0.31-0.39c-0.08-0.15-0.12-0.31-0.13-0.48c-0.02-0.25,0.03-0.51,0.15-0.73c0.12-0.22,0.31-0.4,0.53-0.52
	c0.23-0.12,0.48-0.17,0.74-0.14c0.25,0.03,0.49,0.13,0.69,0.29l0.04,0.04l0.04,0.03l0.22,0.18c0.19,0.14,0.5,0.37,0.91,0.65
	c1.11,0.73,2.29,1.37,3.51,1.89c1.11,0.48,2.26,0.88,3.43,1.19c3.29,0.86,6.73,0.97,10.07,0.31c1.25-0.24,2.47-0.59,3.66-1.04
	c1.7-0.63,3.32-1.46,4.82-2.47c0.36-0.24,0.71-0.49,1.04-0.77c0.21-0.18,0.47-0.29,0.75-0.31c0.28-0.02,0.55,0.05,0.79,0.2
	c0.23,0.15,0.41,0.37,0.51,0.62c0.1,0.26,0.11,0.54,0.03,0.81c0,0-0.26,0.95-0.8,2.37c-0.68,1.82-1.5,3.6-2.45,5.3
	c-0.77,1.38-1.65,2.69-2.63,3.93C41.48,36.57,40.84,37.26,40.15,37.91z M46.36,41.39c0.43,0,0.84-0.17,1.14-0.47
	c0.3-0.3,0.47-0.71,0.48-1.13c0-0.21-0.04-0.42-0.13-0.61c-0.08-0.19-0.2-0.37-0.35-0.52c-0.15-0.15-0.33-0.27-0.52-0.35
	c-0.2-0.08-0.4-0.12-0.62-0.12c-0.21,0-0.42,0.04-0.62,0.12c-0.2,0.08-0.37,0.2-0.52,0.35c-0.15,0.15-0.27,0.33-0.35,0.52
	c-0.08,0.19-0.12,0.4-0.13,0.61c0,0.43,0.17,0.83,0.48,1.13C45.53,41.22,45.94,41.39,46.36,41.39z"/>
</svg>
