<?xml version="1.0" encoding="utf-8"?>
<!-- Generator: Adobe Illustrator 25.4.1, SVG Export Plug-In . SVG Version: 6.00 Build 0)  -->
<svg version="1.1" id="Layer_1" xmlns="http://www.w3.org/2000/svg" xmlns:xlink="http://www.w3.org/1999/xlink" x="0px" y="0px"
	 viewBox="0 0 64 64" style="enable-background:new 0 0 64 64;" xml:space="preserve">
<path d="M42.27,22v-5.6c0-0.11-0.04-0.21-0.12-0.28C42.07,16.04,41.97,16,41.87,16H22.13c-0.11,0-0.21,0.04-0.28,0.12
	c-0.08,0.08-0.12,0.18-0.12,0.28v31.2c0,0.11,0.04,0.21,0.12,0.28c0.08,0.08,0.18,0.12,0.28,0.12h19.73c0.11,0,0.21-0.04,0.28-0.12
	c0.08-0.07,0.12-0.18,0.12-0.28V42c0-0.11-0.04-0.21-0.12-0.28c-0.08-0.08-0.18-0.12-0.28-0.12H28.53c-0.11,0-0.21-0.04-0.28-0.12
	c-0.08-0.08-0.12-0.18-0.12-0.28v-5.83c0-0.11,0.04-0.21,0.12-0.28l5.6-5.6c0.06-0.06,0.09-0.13,0.11-0.2
	c0.02-0.08,0.01-0.16-0.02-0.23c-0.03-0.07-0.08-0.14-0.15-0.18c-0.07-0.04-0.14-0.07-0.22-0.07h-5.04c-0.11,0-0.21-0.04-0.28-0.12
	c-0.08-0.08-0.12-0.18-0.12-0.28v-5.6c0-0.11,0.04-0.21,0.12-0.28c0.08-0.08,0.18-0.12,0.28-0.12h13.33c0.05,0,0.1-0.01,0.15-0.03
	c0.05-0.02,0.09-0.05,0.13-0.09c0.04-0.04,0.07-0.08,0.09-0.13C42.26,22.1,42.27,22.05,42.27,22z M42.27,29.42v5.53
	c0,0.07-0.03,0.13-0.08,0.18s-0.11,0.08-0.18,0.08h-5.53c-0.05,0-0.1-0.02-0.14-0.04c-0.04-0.03-0.07-0.07-0.09-0.12
	c-0.02-0.05-0.02-0.1-0.01-0.15c0.01-0.05,0.03-0.09,0.07-0.13l5.53-5.53c0.04-0.03,0.08-0.06,0.13-0.07s0.1,0,0.15,0.02
	c0.05,0.02,0.09,0.05,0.11,0.09C42.25,29.32,42.27,29.37,42.27,29.42L42.27,29.42z"/>
</svg>
