<?xml version="1.0" encoding="utf-8"?>
<!-- Generator: Adobe Illustrator 25.4.1, SVG Export Plug-In . SVG Version: 6.00 Build 0)  -->
<svg version="1.1" id="Layer_1" xmlns="http://www.w3.org/2000/svg" xmlns:xlink="http://www.w3.org/1999/xlink" x="0px" y="0px"
	 viewBox="0 0 64 64" style="enable-background:new 0 0 64 64;" xml:space="preserve">
	<style type="text/css">
	.st0{fill-rule:evenodd;clip-rule:evenodd;}
	</style>
	<path class="st0" d="M26.85,38.13c0.22,0.09,0.45,0.14,0.69,0.14c0.48,0,0.94-0.19,1.27-0.53l13.43-13.43v12.15
	c0,0.48,0.19,0.94,0.53,1.28c0.34,0.34,0.8,0.53,1.28,0.53c0.48,0,0.94-0.19,1.28-0.53c0.34-0.34,0.53-0.8,0.53-1.28V20.69
	l3.61-3.61c0.34-0.34,0.53-0.8,0.53-1.28c0-0.48-0.19-0.94-0.53-1.28c-0.34-0.34-0.8-0.53-1.28-0.53s-0.94,0.19-1.28,0.53
	l-3.61,3.61H27.54c-0.48,0-0.94,0.19-1.28,0.53c-0.34,0.34-0.53,0.8-0.53,1.28c0,0.48,0.19,0.94,0.53,1.28
	c0.34,0.34,0.8,0.53,1.28,0.53h12.15L29.35,32.09v-3.14c0-0.48-0.19-0.94-0.53-1.28c-0.34-0.34-0.8-0.53-1.28-0.53
	c-0.48,0-0.94,0.19-1.28,0.53c-0.34,0.34-0.53,0.8-0.53,1.28v7.51c0,0.24,0.05,0.47,0.14,0.69c0.09,0.22,0.22,0.42,0.39,0.59
	S26.63,38.03,26.85,38.13z M44.06,46H19.81c-0.48,0-0.94-0.19-1.28-0.53c-0.34-0.34-0.53-0.8-0.53-1.28V19.94
	c0-0.48,0.19-0.94,0.53-1.28c0.34-0.34,0.8-0.53,1.28-0.53c0.48,0,0.94,0.19,1.28,0.53c0.34,0.34,0.53,0.8,0.53,1.28v22.44h22.44
	c0.48,0,0.94,0.19,1.28,0.53c0.34,0.34,0.53,0.8,0.53,1.28c0,0.48-0.19,0.94-0.53,1.28C45,45.81,44.54,46,44.06,46z"/>
</svg>
