<?xml version="1.0" encoding="utf-8"?>
<!-- Generator: Adobe Illustrator 25.4.1, SVG Export Plug-In . SVG Version: 6.00 Build 0)  -->
<svg version="1.1" id="Layer_1" xmlns="http://www.w3.org/2000/svg" xmlns:xlink="http://www.w3.org/1999/xlink" x="0px" y="0px"
	 viewBox="0 0 64 64" style="enable-background:new 0 0 64 64;" xml:space="preserve">
<path d="M28.4,39.03l2.4,1.2v-7.91c0-0.31-0.13-0.62-0.35-0.84l-7.78-7.88h18.67l-7.76,7.88c-0.22,0.22-0.35,0.53-0.35,0.84
	L33.2,41.6l2.4,1.2v-9.98l7.9-8.02c0.32-0.32,0.5-0.75,0.5-1.2v-1.2c0-0.32-0.13-0.62-0.35-0.85c-0.22-0.23-0.53-0.35-0.85-0.35
	H21.2c-0.32,0-0.62,0.13-0.85,0.35C20.13,21.78,20,22.08,20,22.4v1.2c0.01,0.45,0.19,0.88,0.5,1.2l7.9,8.02V39.03z"/>
</svg>
